<svg xmlns="http://www.w3.org/2000/svg" width="408" height="306" viewBox="0 0 408 306" version="1.1">
	<path d="M 90.035 16.934 C 88.845 19.157, 88.833 39.300, 90.005 65 C 93.025 131.184, 93.190 140.912, 91.509 153.398 C 87.956 179.779, 79.707 207.158, 75.109 207.829 C 73.869 208.010, 72.136 207.883, 71.259 207.546 C 70.381 207.209, 60.111 206.733, 48.437 206.487 C 31.447 206.130, 26.987 206.310, 26.093 207.388 C 24.246 209.613, 30.570 210.052, 54.250 209.339 C 67.087 208.953, 75.998 209.057, 75.995 209.592 C 75.987 211.153, 71.430 221.777, 70.060 223.428 C 68.975 224.735, 69 225, 70.209 225 C 71.765 225, 72.845 223.128, 75.404 216 C 78.202 208.204, 77.325 208.551, 91.157 209.779 C 105.993 211.096, 126.730 213.951, 129.500 215.057 C 130.600 215.497, 133.975 216.391, 137 217.045 C 144.789 218.727, 161.872 224.544, 172.828 229.243 C 182.844 233.539, 184.866 233.408, 183.030 228.579 C 181.424 224.354, 178.744 211.922, 179.317 211.350 C 179.597 211.070, 205.294 211.334, 236.422 211.937 C 267.550 212.540, 294.113 212.759, 295.451 212.423 C 298.293 211.710, 304.708 201.663, 308.012 192.750 C 310.171 186.925, 310.535 186.624, 315 186.975 C 321.150 187.458, 333 195.137, 333 198.640 C 333 200.275, 290.560 243.023, 281.399 250.615 C 271.122 259.132, 270.559 259.567, 268.956 260.231 C 268.155 260.563, 261.432 266.064, 254.016 272.457 C 246.600 278.849, 239.512 284.335, 238.266 284.648 C 235.860 285.252, 235.125 287, 237.277 287 C 239.092 287, 242.080 284.774, 254.017 274.528 C 259.802 269.562, 268.280 262.575, 272.858 259 C 285.294 249.289, 299.083 236.690, 312.410 222.860 C 318.961 216.062, 326.611 208.132, 329.410 205.237 L 334.500 199.974 337.212 203.237 C 338.704 205.032, 340.954 208.850, 342.212 211.722 C 343.471 214.593, 345.015 217.148, 345.644 217.399 C 346.835 217.875, 346.791 217.071, 345 205.500 C 344.489 202.200, 343.780 197.250, 343.423 194.500 L 342.775 189.500 348.637 183.819 C 351.862 180.694, 356.442 175.865, 358.817 173.086 C 362.142 169.195, 365.472 166.853, 373.317 162.891 C 378.917 160.062, 385.300 156.503, 387.500 154.983 C 393.613 150.759, 405 138.487, 405 136.123 C 405 134.156, 404.736 134.207, 399.750 137.131 C 396.863 138.824, 391.228 142.750, 387.228 145.855 C 383.228 148.960, 378.857 152.079, 377.514 152.787 C 376.171 153.495, 372.785 156.705, 369.988 159.920 C 365.895 164.627, 363.306 166.496, 356.702 169.515 C 352.191 171.577, 346.816 173.859, 344.757 174.585 C 341.201 175.840, 340.991 175.796, 340.535 173.703 C 339.950 171.021, 338.299 155.409, 337.446 144.500 C 337.102 140.100, 336.141 133.575, 335.310 130 C 334.480 126.425, 333.557 118.174, 333.259 111.665 C 332.855 102.812, 332.365 99.694, 331.316 99.291 C 329.098 98.440, 328.810 99.452, 329.768 104.726 C 330.674 109.709, 329.316 126.225, 327.018 138.182 C 325.781 144.619, 317.222 169.267, 312.887 178.877 C 310.411 184.366, 309.797 185.077, 308.479 183.982 C 306.140 182.042, 292.537 183.432, 289.352 185.937 L 286.875 187.886 290.562 188.578 C 292.590 188.958, 297.288 189.014, 301.002 188.703 L 307.756 188.137 305.787 193.318 C 302.474 202.039, 297.152 210.726, 294.726 211.375 C 292.892 211.866, 178.840 210.190, 178.345 209.665 C 178.260 209.574, 176.967 202.300, 175.473 193.500 C 173.407 181.331, 172.638 172.831, 172.262 158 C 171.990 147.275, 171.332 137.959, 170.800 137.297 C 170.269 136.636, 169.578 129.098, 169.266 120.547 C 168.954 111.996, 168.281 105, 167.770 105 C 167.246 105, 166.933 109.260, 167.053 114.750 C 167.283 125.363, 165.567 142.072, 163.932 145.127 C 163.368 146.180, 163.139 147.416, 163.422 147.873 C 163.705 148.331, 163.290 149.559, 162.500 150.603 C 161.194 152.328, 161.058 152.001, 160.997 147 C 160.960 143.975, 160.280 137.900, 159.485 133.500 C 158.690 129.100, 158.030 123.164, 158.020 120.309 C 158.009 117.454, 157.570 114.852, 157.044 114.527 C 155.407 113.516, 153.264 118.240, 152.601 124.324 C 152.251 127.527, 151.246 131.802, 150.366 133.824 C 147.157 141.201, 145 147.520, 145 149.545 C 145 150.685, 144.339 152.491, 143.532 153.559 C 142.216 155.299, 142.060 154.169, 142.032 142.667 C 142.007 132.859, 141.705 129.930, 140.750 130.244 C 140.063 130.470, 139.409 131.745, 139.298 133.077 C 139.187 134.410, 138.755 140, 138.339 145.500 L 137.582 155.500 136.908 149 C 136.537 145.425, 136.181 137.464, 136.117 131.309 C 136.048 124.743, 135.569 119.851, 134.956 119.473 C 132.972 118.246, 131.220 121.082, 130.442 126.780 C 130.013 129.926, 129.495 131.600, 129.292 130.500 C 128.318 125.234, 127.894 124, 127.059 124 C 125.781 124, 124.251 129.436, 123.470 136.752 C 122.182 148.827, 121 144.191, 121 127.059 C 121 116.211, 120.631 110, 119.987 110 C 117.762 110, 113.714 121.589, 110.454 137.290 C 107.657 150.759, 102.485 169.338, 101.434 169.689 C 99.592 170.303, 97.073 163.274, 95.854 154.117 C 94.846 146.548, 94.941 142.932, 96.492 129.861 C 97.946 117.605, 98.310 107.122, 98.295 78 C 98.278 45.409, 98.047 40.136, 96.138 28.767 C 94.962 21.763, 94 15.801, 94 15.517 C 94 14.141, 90.945 15.233, 90.035 16.934 M 91.461 48 C 91.844 64.775, 92.569 82.100, 93.071 86.500 C 93.574 90.900, 94.017 101.250, 94.056 109.500 C 94.110 120.857, 94.379 123.893, 95.165 122 C 95.813 120.439, 96.244 105.228, 96.313 81.500 C 96.406 49.238, 96.145 41.688, 94.583 31.500 C 91.441 10.994, 90.705 14.883, 91.461 48 M 117.161 118.750 C 115.932 121.875, 113.533 131.547, 112.510 137.500 C 111.705 142.186, 107.241 158.601, 105.984 161.500 C 105.507 162.600, 104.836 164.931, 104.494 166.681 C 103.795 170.251, 101.976 172.235, 100.356 171.193 C 98.454 169.969, 95.639 163.658, 94.473 158 L 93.340 152.500 92.681 158.792 C 91.872 166.519, 86.308 190.924, 84.995 192.506 C 84.470 193.139, 82.904 196.673, 81.517 200.359 C 79.658 205.299, 79.324 207.157, 80.247 207.429 C 81.683 207.851, 156.546 210.057, 168.250 210.023 C 172.512 210.010, 176 209.596, 176 209.102 C 176 208.608, 174.842 201.296, 173.426 192.852 C 171.523 181.494, 170.621 171.256, 169.963 153.500 C 169.473 140.300, 169.056 129.361, 169.036 129.191 C 169.016 129.021, 168.550 129.160, 168 129.500 C 167.450 129.840, 167 131.843, 167 133.952 C 167 138.878, 164.097 153.195, 162.833 154.500 C 161.126 156.264, 159.002 151.904, 158.965 146.559 C 158.946 143.776, 158.280 137.900, 157.485 133.500 C 156.690 129.100, 155.975 123.700, 155.896 121.500 C 155.780 118.248, 155.584 118.716, 154.850 124 C 154.287 128.048, 152.448 133.605, 149.973 138.729 C 147.788 143.256, 146 148.268, 146 149.869 C 146 151.469, 145.100 153.841, 144.001 155.139 C 142.109 157.373, 141.927 157.404, 140.618 155.719 C 139.351 154.089, 139.177 154.243, 138.560 157.533 C 138.161 159.659, 137.398 160.968, 136.693 160.735 C 135.401 160.309, 134.367 148.818, 134.018 131 L 133.812 120.500 132.348 127.500 C 131.543 131.350, 130.340 138.100, 129.674 142.500 C 128.788 148.356, 128.066 150.500, 126.982 150.500 C 125.786 150.500, 125.562 149.178, 125.820 143.647 C 126.040 138.962, 125.802 137.004, 125.070 137.456 C 124.482 137.820, 124 139.392, 124 140.948 C 124 142.505, 123.138 144.841, 122.084 146.139 L 120.169 148.500 119.505 145.865 C 119.140 144.415, 118.989 137.102, 119.170 129.613 C 119.352 122.124, 119.217 115.998, 118.871 115.999 C 118.526 115.999, 117.756 117.237, 117.161 118.750 M 330.616 127.283 C 329.814 136.127, 326.783 148.828, 324.667 152.205 C 323.876 153.467, 321.541 159.675, 319.478 166 C 317.415 172.325, 315.095 178.751, 314.322 180.279 C 312.646 183.598, 313.348 185.374, 315.796 184.009 C 316.733 183.487, 322.225 181.647, 328 179.921 C 340.369 176.223, 340.412 176.202, 339.010 174.513 C 338.413 173.792, 338.026 171.678, 338.152 169.814 C 338.277 167.949, 338.111 165.989, 337.782 165.457 C 337.454 164.925, 336.643 158.192, 335.982 150.495 C 335.321 142.798, 334 132.688, 333.048 128.028 L 331.316 119.557 330.616 127.283 M 390.763 144.962 C 381.644 151.116, 366.692 163.663, 369.500 162.805 C 370.050 162.637, 374.325 160.483, 379 158.017 C 387.310 153.634, 403.319 139.994, 401.866 138.535 C 401.517 138.185, 396.521 141.077, 390.763 144.962 M 357.433 170.952 C 356.920 171.457, 353.125 173.225, 349 174.880 L 341.500 177.889 341.852 182.694 C 342.045 185.337, 342.394 187.699, 342.627 187.941 C 343.221 188.562, 354 177.787, 354 176.572 C 354 176.024, 355.238 174.586, 356.750 173.377 C 358.262 172.168, 359.245 170.921, 358.933 170.606 C 358.622 170.291, 357.947 170.447, 357.433 170.952 M 328 182.018 C 319.398 184.782, 317.004 185.899, 318.500 186.450 C 319.600 186.856, 321.850 187.694, 323.500 188.313 C 325.150 188.932, 328.466 191.247, 330.870 193.457 L 335.240 197.476 338.120 194.026 C 340.403 191.291, 340.985 189.634, 340.930 186.038 C 340.802 177.808, 340.955 177.856, 328 182.018 M 113.336 210.734 C 113.697 211.318, 117.256 212.101, 121.246 212.474 C 137.214 213.964, 167.709 223.369, 178.889 230.249 C 181.247 231.700, 182.114 231.904, 181.737 230.918 C 181.440 230.138, 180.164 225.338, 178.901 220.250 L 176.606 211 165.964 211 C 160.111 211, 145.728 210.701, 134.001 210.336 C 119.052 209.870, 112.875 209.989, 113.336 210.734" stroke="none" fill="#000000" fill-rule="evenodd"/>
</svg>