<?xml version="1.0" encoding="UTF-8" standalone="no"?>
<svg
   width="408"
   height="306"
   viewBox="0 0 408 306"
   version="1.1"
   id="svg1"
   sodipodi:docname="firma.svg"
   inkscape:version="1.4.2 (f4327f4, 2025-05-13)"
   xmlns:inkscape="http://www.inkscape.org/namespaces/inkscape"
   xmlns:sodipodi="http://sodipodi.sourceforge.net/DTD/sodipodi-0.dtd"
   xmlns="http://www.w3.org/2000/svg"
   xmlns:svg="http://www.w3.org/2000/svg">
  <defs
     id="defs1" />
  <sodipodi:namedview
     id="namedview1"
     pagecolor="#505050"
     bordercolor="#eeeeee"
     borderopacity="1"
     inkscape:showpageshadow="0"
     inkscape:pageopacity="0"
     inkscape:pagecheckerboard="0"
     inkscape:deskcolor="#505050"
     inkscape:zoom="2.7941176"
     inkscape:cx="219.56842"
     inkscape:cy="153"
     inkscape:window-width="1920"
     inkscape:window-height="1057"
     inkscape:window-x="-8"
     inkscape:window-y="-8"
     inkscape:window-maximized="1"
     inkscape:current-layer="svg1" />
  <path
     style="fill:#000000;fill-opacity:0;stroke:#000000;stroke-width:0.794624"
     d="m 107.81415,188.32025 c 0,0 13.79118,-31.04538 17.89751,-47.44032 2.50467,-10.00015 2.7943,-20.42892 4.01152,-30.66585 0.91297,-7.67812 2.22617,-15.336495 2.46862,-23.064905 0.36744,-11.712719 -0.24558,-23.475121 -1.54289,-35.12157 -0.70757,-6.352089 1.80817,-15.158694 -3.39436,-18.871286 -0.93191,-0.665023 -2.60917,-0.308987 -3.39435,0.524202 -1.5046,1.596599 -0.5229,4.360713 -0.61716,6.552531 -0.55556,12.918797 0.19265,25.860766 0.30858,38.790983 0.0924,10.309414 -0.30337,20.636294 0.30858,30.927945 0.50601,8.50999 0.0921,17.3327 2.7772,25.42382 1.53272,4.61858 2.54112,12.70241 7.40587,12.58086 1.77433,-0.0443 1.88344,-3.04218 2.46862,-4.71782 1.43729,-4.1156 1.33195,-8.6344 2.46862,-12.84296 1.3762,-5.09542 5.24583,-14.93977 5.24583,-14.93977 l 4.62868,-11.53245 0.61715,20.18179 1.23431,7.33884 3.08578,-12.84297 1.85147,-4.97992 1.54288,8.91144 -2.46861,10.74615 4.93724,-3.40731 -0.30858,-14.67767 2.46862,-5.24203 1.85147,8.38724 0.30858,11.53246 -0.30858,11.79455 3.70294,-5.76622 -1.54289,-14.15347 2.16004,-3.66942 1.23432,17.03658 2.77719,-4.97992 2.7772,-8.91145 5.86298,-15.46397 1.85147,9.95985 0.92574,12.05666 2.16004,9.43564 3.08579,-10.22195 2.46861,-7.86304 c 0,0 4.42477,-15.29068 -0.92573,-18.08498 -1.61123,-0.84146 -4.00856,1.17445 -4.62867,2.88312 -1.34902,3.71713 3.70294,11.27035 3.70294,11.27035 l 3.39436,14.41556 1.54288,13.62927 c 0,0 -0.46619,14.97749 0.92574,22.2786 1.69795,8.9063 14.01432,18.16626 8.94876,25.68592 -0.97817,1.45205 -3.51156,0.50205 -5.24583,0.2621 -6.23576,-0.86276 -11.80832,-4.43121 -17.89751,-6.02833 -11.74859,-3.0815 -23.77353,-5.08022 -35.79504,-6.81463 -8.79785,-1.26932 -17.66429,-2.09599 -26.53771,-2.62101 -13.24827,-0.78386 -26.569504,0.16853 -39.806549,-0.7863 -3.51526,-0.25357 -10.568384,2.21305 -10.49165,-1.31051 0.09436,-4.33318 8.6262,-1.01488 12.960273,-1.04841 6.699911,-0.0518 13.363667,1.02207 20.057566,1.31051 12.53993,0.54035 25.09803,0.50722 37.6465,0.7863 11.10915,0.24707 22.2204,0.42524 33.32643,0.78631 8.43724,0.2743 16.86244,0.93543 25.30338,1.0484 5.96595,0.0798 11.93104,-0.25928 17.89752,-0.2621 19.13362,-0.009 38.26466,0.45948 57.39549,0.7863 8.53787,0.14586 17.62699,3.55019 25.61197,0.52421 4.57941,-1.73541 7.85444,-6.0477 10.80023,-9.95985 6.76145,-8.97953 10.80741,-19.76146 15.12031,-30.14164 2.863,-6.89059 5.58362,-13.92364 7.0973,-21.23019 1.45869,-7.04113 5.6601,-15.39317 1.85147,-21.492315 -0.64241,-1.028749 -2.36048,-1.94461 -3.39436,-1.3105 -1.72188,1.056078 -0.79042,4.015821 -0.61716,6.02832 0.84841,9.854955 6.27294,18.833695 8.02303,28.569045 1.33385,7.41994 0.68661,15.09237 1.85147,22.54071 1.05328,6.73493 3.67142,13.17044 4.62866,19.91969 0.54058,3.81151 4.23685,10.22185 0.61716,11.53245 -4.20322,1.52188 -4.98284,-7.46888 -8.02302,-10.74615 -3.71002,-3.99936 -7.29671,-8.67422 -12.34312,-10.74615 -7.72252,-3.17067 -16.68421,-0.78257 -24.99482,-1.57261 -2.06451,-0.19626 -6.14868,1.28739 -6.17155,-0.7863 -0.0585,-5.3041 10.4764,-1.68209 15.73747,-2.35891 8.10591,-1.04281 16.37059,-0.98386 24.37765,-2.62102 6.74335,-1.37878 13.26731,-3.71285 19.749,-6.02833 9.73951,-3.47929 20.17015,-5.94274 28.69774,-11.79455 5.05853,-3.47127 13.80742,-7.34198 12.65169,-13.36716 -0.23491,-1.22466 -2.15637,-1.72221 -3.39435,-1.57261 -2.22251,0.26858 -3.39643,2.93211 -5.24583,4.19362 -2.74615,1.87321 -5.92219,3.06608 -8.64018,4.97993 -5.51724,3.88491 -10.35422,8.65755 -15.42889,13.10505 -6.46584,5.66674 -12.77121,11.5141 -19.13183,17.29869 -2.68139,2.43856 -5.29253,4.9554 -8.02303,7.33883 -5.14284,4.48915 -10.54768,8.6703 -15.73748,13.10507 -6.44793,5.50986 -12.68674,11.26127 -19.13182,16.77447 -5.8028,4.96379 -11.47101,10.10792 -17.58894,14.67767 -5.05003,3.77209 -10.44577,7.05924 -15.73748,10.48405 -5.09964,3.3005 -15.4289,9.69774 -15.4289,9.69774"
     id="path2"
     sodipodi:nodetypes="ccccccccccccccccccccccccccccccccccccccccssccccccccccccccccccccccccccccccccccccccccccccccccc" />
</svg>
